<svg width="1156" height="2265" viewBox="0 0 1156 2265" fill="none" xmlns="http://www.w3.org/2000/svg">
<path d="M1079.79 2261.76C794.377 2278.85 504.077 2200.57 265.947 2042.31C195.087 1995.21 127.987 1940.47 78.0772 1871.56C28.1672 1802.65 -3.61283 1718.24 1.54717 1633.31C6.70717 1548.38 52.5172 1464.13 127.487 1423.93C208.547 1380.43 307.067 1392.73 397.697 1408.49C415.147 1411.53 433.157 1414.64 450.417 1410.68C467.687 1406.73 484.187 1393.78 486.547 1376.23C490.237 1348.75 465.14 1326.22 437.5 1324C396.48 1320.7 345 1319.5 317.887 1365C294.907 1399.13 299.407 1458.44 317.887 1495.2C337.737 1534.7 379.197 1560.11 422.367 1569.61C465.537 1579.11 510.557 1574.59 554.087 1566.92C649.997 1550.02 748.067 1514.75 810.557 1440.05C860.937 1379.83 882.527 1300.78 894.947 1223.26C907.357 1145.73 912.117 1066.52 935.017 991.415C955.684 923.666 1009.5 710 1116.5 710C1181.5 710 1150.5 855 1116.5 815.5C1067.25 758.278 1107.03 803.895 1043.5 734C898.317 574.266 608.596 468.97 430.017 561.345C394.099 579.92 354.64 597.127 315 605.033C278.325 612.349 241.494 611.703 207.167 596.815C154.327 573.905 118.697 518.365 114.937 460.895C111.167 403.415 137.327 345.845 179.717 306.855C222.107 267.865 279.387 246.855 336.897 243.715C377.727 241.485 427.757 243.315 448.517 208.085C459.657 189.185 457.447 164.485 447.147 145.105C436.857 125.725 419.547 110.975 401.167 98.995C364.647 75.185 322.837 60.645 285.377 38.355C268.231 28.1553 251.667 15.6627 238.005 1" stroke="#FFBC00" stroke-width="1.5" stroke-miterlimit="10"/>
</svg>
