<svg width="46" height="23" viewBox="0 0 46 23" fill="none" xmlns="http://www.w3.org/2000/svg">
<path d="M10.16 15.91V17.23C10.16 17.89 10.03 18.52 9.77 19.12C9.53 19.7 9.19 20.22 8.75 20.68C8.31 21.14 7.79 21.51 7.19 21.79C6.61 22.05 5.98 22.18 5.3 22.18C4.72 22.18 4.13 22.1 3.53 21.94C2.93 21.78 2.39 21.5 1.91 21.1C1.43 20.7 1.03 20.19 0.71 19.57C0.41 18.93 0.26 18.12 0.26 17.14V5.38C0.26 4.68 0.38 4.03 0.62 3.43C0.86 2.83 1.2 2.31 1.64 1.87C2.08 1.43 2.6 1.09 3.2 0.849999C3.82 0.589998 4.5 0.459998 5.24 0.459998C6.68 0.459998 7.85 0.929999 8.75 1.87C9.19 2.33 9.53 2.88 9.77 3.52C10.03 4.14 10.16 4.82 10.16 5.56V6.76H7.1V5.74C7.1 5.14 6.93 4.62 6.59 4.18C6.25 3.74 5.79 3.52 5.21 3.52C4.45 3.52 3.94 3.76 3.68 4.24C3.44 4.7 3.32 5.29 3.32 6.01V16.93C3.32 17.55 3.45 18.07 3.71 18.49C3.99 18.91 4.48 19.12 5.18 19.12C5.38 19.12 5.59 19.09 5.81 19.03C6.05 18.95 6.27 18.83 6.47 18.67C6.65 18.51 6.8 18.29 6.92 18.01C7.04 17.73 7.1 17.38 7.1 16.96V15.91H10.16ZM15.8068 22V0.64H18.7468L22.6768 11.95H22.7368L26.6368 0.64H29.6068V22H26.5468V9.01H26.4868L23.4568 18.19H21.9268L18.9268 9.01H18.8668V22H15.8068ZM45.5267 6.79H42.4667V6.1C42.4667 5.4 42.2967 4.8 41.9567 4.3C41.6367 3.78 41.0867 3.52 40.3067 3.52C39.8867 3.52 39.5467 3.6 39.2867 3.76C39.0267 3.92 38.8167 4.12 38.6567 4.36C38.4967 4.62 38.3867 4.92 38.3267 5.26C38.2667 5.58 38.2367 5.92 38.2367 6.28C38.2367 6.7 38.2467 7.05 38.2667 7.33C38.3067 7.61 38.3867 7.86 38.5067 8.08C38.6267 8.3 38.7967 8.49 39.0167 8.65C39.2567 8.81 39.5767 8.97 39.9767 9.13L42.3167 10.06C42.9967 10.32 43.5467 10.63 43.9667 10.99C44.3867 11.33 44.7167 11.73 44.9567 12.19C45.1767 12.67 45.3267 13.22 45.4067 13.84C45.4867 14.44 45.5267 15.13 45.5267 15.91C45.5267 16.81 45.4367 17.65 45.2567 18.43C45.0767 19.19 44.7867 19.84 44.3867 20.38C43.9667 20.94 43.4167 21.38 42.7367 21.7C42.0567 22.02 41.2267 22.18 40.2467 22.18C39.5067 22.18 38.8167 22.05 38.1767 21.79C37.5367 21.53 36.9867 21.17 36.5267 20.71C36.0667 20.25 35.6967 19.72 35.4167 19.12C35.1567 18.5 35.0267 17.83 35.0267 17.11V15.97H38.0867V16.93C38.0867 17.49 38.2467 18 38.5667 18.46C38.9067 18.9 39.4667 19.12 40.2467 19.12C40.7667 19.12 41.1667 19.05 41.4467 18.91C41.7467 18.75 41.9767 18.53 42.1367 18.25C42.2967 17.97 42.3867 17.64 42.4067 17.26C42.4467 16.86 42.4667 16.42 42.4667 15.94C42.4667 15.38 42.4467 14.92 42.4067 14.56C42.3667 14.2 42.2867 13.91 42.1667 13.69C42.0267 13.47 41.8367 13.29 41.5967 13.15C41.3767 13.01 41.0767 12.86 40.6967 12.7L38.5067 11.8C37.1867 11.26 36.2967 10.55 35.8367 9.67C35.3967 8.77 35.1767 7.65 35.1767 6.31C35.1767 5.51 35.2867 4.75 35.5067 4.03C35.7267 3.31 36.0567 2.69 36.4967 2.17C36.9167 1.65 37.4467 1.24 38.0867 0.939999C38.7467 0.619999 39.5267 0.459998 40.4267 0.459998C41.1867 0.459998 41.8767 0.599998 42.4967 0.879998C43.1367 1.16 43.6867 1.53 44.1467 1.99C45.0667 2.95 45.5267 4.05 45.5267 5.29V6.79Z" fill="#004187"/>
</svg>
