<svg width="129" height="34" viewBox="0 0 129 34" fill="none" xmlns="http://www.w3.org/2000/svg">
<path d="M32.063 4.5656C33.1839 4.5656 34.0926 3.65694 34.0926 2.53606C34.0926 1.41518 33.1839 0.506531 32.063 0.506531C30.9422 0.506531 30.0335 1.41518 30.0335 2.53606C30.0335 3.65694 30.9422 4.5656 32.063 4.5656Z" fill="#4298BA"/>
<path d="M12.8173 6.31382C12.8806 7.27397 12.9974 8.90021 13.1197 9.62053C13.2443 10.3548 13.4333 11.0768 13.6836 11.7782C14.0874 12.9302 14.6465 14.0215 15.3463 15.0217C16.5011 16.5001 17.8743 17.7576 20.0763 17.7576C21.5029 17.751 22.8688 17.1795 23.875 16.1682C24.8811 15.1568 25.4447 13.7879 25.4439 12.3613C25.3873 11.4344 25.1942 10.521 24.8696 9.65092C24.5961 8.87581 24.5038 8.04835 24.6001 7.23208C24.7651 6.46232 25.1803 5.76904 25.7815 5.26085C26.4605 4.73742 27.289 4.44474 28.1461 4.42555C29.1204 4.45293 30.0456 4.85935 30.7248 5.55835C31.404 6.25735 31.7842 7.19376 31.7836 8.1684C31.7596 8.99088 31.4328 9.77557 30.866 10.3721C30.1496 11.0615 29.349 11.6581 28.4838 12.1478C27.6749 12.7006 26.9767 13.3998 26.4248 14.2094C25.8721 15.063 25.628 16.0799 25.7326 17.0915C25.9784 18.3597 26.3734 19.5943 26.9101 20.7694C27.6611 22.3402 28.1008 24.0416 28.2047 25.7796C28.2429 26.7979 28.0727 27.8132 27.7041 28.7632C27.3356 29.7132 26.7764 30.5778 26.0615 31.3038C25.3465 32.0299 24.4911 32.6021 23.5469 32.9854C22.6027 33.3686 21.5899 33.5547 20.5712 33.5322C19.1489 33.5479 17.7475 33.1866 16.5102 32.485C15.283 31.7716 14.3114 30.6904 13.7325 29.3943C13.1192 27.9957 12.8721 26.464 13.0147 24.9435C13.1257 23.5578 13.4319 22.1946 13.9234 20.8943C14.228 20.1309 14.4138 19.3254 14.4745 18.5058C14.4718 17.3917 14.0323 16.3232 13.2505 15.5295C12.4687 14.7359 11.4071 14.2805 10.2932 14.2611C9.35578 14.2725 8.44697 14.5857 7.70161 15.1543C6.95625 15.7229 6.41397 16.5165 6.15518 17.4175C5.97125 18.1756 5.85788 18.949 5.8167 19.728C5.77414 21.0016 5.85832 22.2763 6.06855 23.5332C6.20972 24.3237 6.43658 25.0964 6.74472 25.8379C7.03465 26.564 7.50783 27.6046 7.80187 28.2839C7.96305 28.6747 8.07379 29.0846 8.13073 29.5036C8.15946 29.6889 8.17379 29.8762 8.17404 30.0637C8.18124 30.5401 8.0939 31.0132 7.91657 31.4554C7.73924 31.8977 7.4753 32.3002 7.14095 32.6396C6.8066 32.9791 6.40779 33.2487 5.96829 33.4326C5.52879 33.6166 5.05713 33.7114 4.58068 33.7114C4.10422 33.7114 3.63256 33.6166 3.19306 33.4326C2.75356 33.2487 2.35555 32.9791 2.0212 32.6396C1.68685 32.3002 1.42291 31.8977 1.24558 31.4554C1.06825 31.0132 0.980907 30.5401 0.988111 30.0637V30.0481C0.989627 29.2684 1.24608 28.5105 1.71882 27.8904C1.94222 27.5619 2.37636 27.1512 2.8626 26.6001C3.46388 25.9222 3.97736 25.1717 4.39218 24.3661C5.0442 22.9176 5.40303 21.3544 5.44774 19.7666C5.48295 17.6683 5.099 15.5841 4.31839 13.6361C3.55372 11.8513 1.98071 10.0829 1.41562 8.75073C1.18261 8.17642 1.03396 7.57138 0.974475 6.95446C0.961334 6.83044 0.953775 6.70806 0.947204 6.57828C0.939812 6.40745 0.942391 6.30643 0.942391 6.30643C0.93984 4.79284 1.51624 3.33564 2.55379 2.23363C3.59135 1.13163 5.01074 0.468344 6.52173 0.379789C8.03273 0.291235 9.52059 0.78412 10.6798 1.75738C11.839 2.73064 12.5821 4.11052 12.7564 5.61403L12.8173 6.31382Z" fill="url(#paint0_linear_83_1586)"/>
<path d="M43.6819 11.0833V1.09583H44.9307L50.1387 8.89856V1.09583H51.3876V11.0833H50.1387L44.9307 3.27403V11.0833H43.6819Z" fill="#004187"/>
<path d="M56.5735 11.2918C55.8989 11.306 55.2326 11.1356 54.6477 10.799C54.1007 10.474 53.6575 10.0003 53.3692 9.4331C53.0514 8.79617 52.8934 8.09135 52.9096 7.37974C52.8917 6.64579 53.0474 5.91792 53.3628 5.25493C53.6398 4.68121 54.0758 4.19956 54.6196 3.86769C55.1939 3.53087 55.851 3.36025 56.5166 3.37488C57.1963 3.3538 57.8667 3.53504 58.4432 3.89561C58.9834 4.25613 59.3998 4.77395 59.6359 5.37895C59.9157 6.11157 60.0326 6.89635 59.9784 7.67871H58.7296V7.23519C58.7721 6.50461 58.5744 5.78011 58.1673 5.17198C57.9721 4.93931 57.7249 4.75611 57.4454 4.63735C57.1659 4.51858 56.8621 4.46762 56.5591 4.48862C56.2317 4.46743 55.9038 4.52275 55.6014 4.65019C55.299 4.77764 55.0304 4.97371 54.817 5.2229C54.3831 5.83686 54.1732 6.58106 54.2218 7.33128C54.1761 8.06409 54.3863 8.78998 54.817 9.38463C55.0243 9.62937 55.2858 9.82263 55.5805 9.94919C55.8753 10.0758 56.1955 10.1322 56.5158 10.114C56.9693 10.1253 57.417 10.0077 57.8063 9.77478C58.1808 9.53729 58.4794 9.19756 58.667 8.79574L59.8533 9.20641C59.584 9.84158 59.1253 10.378 58.5395 10.7423C57.9497 11.1088 57.2679 11.2994 56.5735 11.2918ZM53.8079 7.68528V6.6931H59.3415V7.68528H53.8079Z" fill="#004187"/>
<path d="M64.3624 11.2774C63.9387 11.2887 63.5174 11.2109 63.1256 11.049C62.7993 10.91 62.507 10.7017 62.269 10.4388C62.0445 10.1888 61.8634 9.90281 61.734 9.59279C61.6057 9.28764 61.5138 8.96838 61.4605 8.64168C61.4086 8.34187 61.3815 8.03835 61.3787 7.7341V3.59125H62.6267V7.34396C62.6257 7.68579 62.6583 8.02692 62.7238 8.36242C62.7829 8.67493 62.8934 8.97532 63.0518 9.25111C63.203 9.50903 63.4185 9.7237 63.6767 9.8745C63.9791 10.0369 64.3194 10.1157 64.6624 10.1028C64.9521 10.1063 65.239 10.0524 65.5078 9.94432C65.7598 9.83979 65.9831 9.67644 66.1591 9.46794C66.353 9.23347 66.4948 8.96052 66.5754 8.66713C66.6783 8.2997 66.7278 7.91928 66.7214 7.53779L67.5323 7.78419C67.5491 8.428 67.4153 9.06682 67.1409 9.64947C66.9001 10.1505 66.5168 10.5691 66.0388 10.8527C65.5287 11.1434 64.9494 11.2901 64.3624 11.2774ZM66.8602 11.0835V9.07945H66.7206V3.59125H67.9638V11.0819L66.8602 11.0835Z" fill="#004187"/>
<path d="M69.9044 11.0835V3.59291H71.0073V5.40397L70.826 5.16741C70.9118 4.94046 71.0272 4.72587 71.1693 4.52924C71.3003 4.34438 71.4614 4.18279 71.6458 4.05121C71.8413 3.89249 72.0637 3.77035 72.3027 3.69065C72.5446 3.608 72.7966 3.558 73.0518 3.54197C73.2915 3.52458 73.5325 3.54174 73.7673 3.59291V4.75182C73.4881 4.68136 73.1983 4.66244 72.9123 4.69597C72.6002 4.72905 72.303 4.8463 72.0524 5.03518C71.8206 5.19773 71.6289 5.41164 71.4934 5.66022C71.3609 5.90896 71.2683 6.17697 71.219 6.45445C71.1682 6.74157 71.1433 7.03267 71.1445 7.32426V11.0827L69.9044 11.0835Z" fill="#004187"/>
<path d="M78.1358 11.292C77.4592 11.3103 76.7917 11.1347 76.2116 10.7861C75.672 10.4464 75.2403 9.96046 74.966 9.38485C74.6651 8.74287 74.5154 8.04038 74.5288 7.3315C74.5135 6.61742 74.6657 5.9097 74.9732 5.26501C75.2507 4.69277 75.6872 4.21238 76.2301 3.88106C76.8179 3.55435 77.4793 3.38344 78.1519 3.38459C78.8244 3.38574 79.4854 3.55891 80.0721 3.88762C80.6133 4.22295 81.0455 4.70793 81.3169 5.2839C81.6041 5.93166 81.7524 6.63238 81.7524 7.34095C81.7524 8.04952 81.6041 8.75024 81.3169 9.398C81.0417 9.97274 80.6088 10.4571 80.0681 10.7943C79.484 11.1391 78.8138 11.3117 78.1358 11.292ZM78.1358 10.12C78.4667 10.1435 78.7987 10.0849 79.1015 9.94939C79.4043 9.81383 79.6687 9.6055 79.8715 9.34297C80.2724 8.75079 80.4718 8.04505 80.4394 7.33069C80.4768 6.61159 80.2744 5.90041 79.8643 5.30854C79.6583 5.05395 79.3937 4.85268 79.0935 4.72174C78.7933 4.59079 78.4658 4.53401 78.139 4.55619C77.6831 4.53741 77.2332 4.66114 76.8509 4.91019C76.5069 5.15326 76.2435 5.49364 76.0945 5.88759C75.9215 6.34834 75.8381 6.83782 75.8483 7.32986C75.8125 8.05112 76.018 8.76375 76.4322 9.35529C76.6336 9.61065 76.8934 9.81354 77.1902 9.94668C77.4869 10.0798 77.8112 10.1393 78.1358 10.12Z" fill="#004187"/>
<path d="M86.2147 11.2921C85.5758 11.3101 84.9478 11.1268 84.4188 10.7681C83.911 10.41 83.5111 9.91932 83.263 9.34963C82.9957 8.71028 82.858 8.02419 82.858 7.33119C82.858 6.63819 82.9957 5.95209 83.263 5.31274C83.5105 4.74487 83.9107 4.25671 84.4188 3.9025C84.9472 3.54842 85.5725 3.36757 86.2083 3.38505C86.8414 3.3634 87.465 3.54281 87.9897 3.89757C88.4811 4.25293 88.8603 4.74181 89.0822 5.30617C89.5762 6.60759 89.5762 8.04493 89.0822 9.34634C88.8597 9.91393 88.4809 10.4069 87.9897 10.7681C87.47 11.1295 86.8474 11.3133 86.2147 11.2921ZM86.3046 14.621C85.9142 14.6214 85.5258 14.5605 85.1544 14.4403C84.7814 14.3212 84.4325 14.1372 84.1237 13.8966C83.8054 13.6451 83.5402 13.3326 83.344 12.9775L84.475 12.3804C84.6404 12.727 84.9175 13.0079 85.2618 13.1779C85.5882 13.3402 85.9481 13.4245 86.3126 13.4243C86.7239 13.439 87.1325 13.3491 87.4997 13.1631C87.8119 12.991 88.0572 12.7192 88.1967 12.3911C88.3572 11.9854 88.4308 11.5506 88.4133 11.1147V9.06873H88.5592V3.58875H89.6565V11.1278C89.6565 11.331 89.6503 11.5273 89.6388 11.7167C89.6275 11.9058 89.603 12.0938 89.5651 12.2794C89.4909 12.7599 89.2926 13.2129 88.99 13.5935C88.694 13.9438 88.3109 14.2096 87.8791 14.3639C87.3753 14.5436 86.8434 14.6321 86.3086 14.6251L86.3046 14.621ZM86.3663 10.1611C86.8088 10.1799 87.2449 10.052 87.6072 9.79726C87.9408 9.54074 88.1907 9.19081 88.325 8.79194C88.634 7.84065 88.634 6.81597 88.325 5.86468C88.1918 5.47128 87.9446 5.12627 87.6152 4.87332C87.2606 4.62388 86.834 4.4983 86.4008 4.51604C85.9518 4.49766 85.5092 4.62913 85.1431 4.88975C84.8026 5.14769 84.5452 5.50019 84.4036 5.90328C84.0812 6.83186 84.0812 7.842 84.4036 8.77058C84.5453 9.17251 84.7998 9.52539 85.1359 9.78741C85.4931 10.0485 85.9283 10.1803 86.3703 10.1611H86.3663Z" fill="#004187"/>
<path d="M91.7389 11.0835V0.888184H92.9709V11.0835H91.7389Z" fill="#004187"/>
<path d="M98.2999 11.2917C97.6249 11.3064 96.959 11.136 96.374 10.7989C95.827 10.4739 95.3831 10.0002 95.0947 9.43302C94.7764 8.79633 94.6193 8.09129 94.6367 7.37967C94.6184 6.64584 94.7727 5.91798 95.0875 5.25485C95.3648 4.68107 95.8019 4.19943 96.346 3.86761C96.9207 3.53037 97.5775 3.35973 98.2437 3.3748C98.9226 3.35426 99.5921 3.53548 100.168 3.89553C100.709 4.25537 101.125 4.77342 101.361 5.37888C101.641 6.11126 101.759 6.89613 101.705 7.67863H100.457V7.23511C100.497 6.50469 100.299 5.78091 99.8936 5.1719C99.6981 4.93925 99.4507 4.75609 99.1709 4.63734C98.8912 4.51859 98.587 4.4676 98.2838 4.48854C97.9566 4.46755 97.6298 4.52296 97.3277 4.6504C97.0257 4.77784 96.7574 4.97381 96.5441 5.22282C96.109 5.83625 95.8977 6.5807 95.9465 7.3312C95.9009 8.06425 96.1125 8.79031 96.5441 9.38455C96.7514 9.62955 97.0128 9.823 97.3077 9.94958C97.6026 10.0762 97.9225 10.1324 98.2429 10.1139C98.6962 10.1251 99.1436 10.0075 99.5327 9.7747C99.9075 9.53787 100.206 9.19793 100.393 8.79566L101.578 9.20633C101.309 9.84179 100.85 10.3784 100.263 10.7422C99.6741 11.1077 98.9933 11.2983 98.2999 11.2917ZM95.5319 7.6852V6.69303H101.068V7.6852H95.5319Z" fill="#004187"/>
<path d="M106.488 11.2917C105.814 11.3064 105.15 11.136 104.566 10.7989C104.018 10.4744 103.573 10.0007 103.285 9.43303C102.966 8.79642 102.809 8.09137 102.826 7.37968C102.808 6.64588 102.962 5.9181 103.277 5.25486C103.554 4.68049 103.992 4.19868 104.537 3.86762C105.111 3.53037 105.768 3.35972 106.434 3.37481C107.112 3.35419 107.782 3.53542 108.358 3.89555C108.899 4.2553 109.316 4.77334 109.552 5.37889C109.832 6.11143 109.949 6.89622 109.895 7.67864H108.646V7.23513C108.687 6.50467 108.491 5.78055 108.085 5.17191C107.889 4.93933 107.641 4.75621 107.362 4.63745C107.082 4.5187 106.779 4.46768 106.476 4.48855C106.148 4.46736 105.82 4.52268 105.518 4.65013C105.215 4.77757 104.947 4.97364 104.733 5.22283C104.299 5.83658 104.088 6.58079 104.136 7.33121C104.091 8.06421 104.302 8.79013 104.733 9.38457C104.941 9.62948 105.203 9.82285 105.498 9.94941C105.793 10.076 106.112 10.1323 106.433 10.1139C106.886 10.1249 107.334 10.0073 107.723 9.77471C108.097 9.53742 108.396 9.19761 108.583 8.79567L109.768 9.20634C109.499 9.84151 109.039 10.3779 108.453 10.7422C107.864 11.1081 107.182 11.2987 106.488 11.2917ZM103.721 7.68521V6.69304H109.256V7.68521H103.721Z" fill="#004187"/>
<path d="M46.2537 29.8102V20.9956H42.8488V19.8227H50.8978V20.9956H47.4921V29.8102H46.2537Z" fill="#004187"/>
<path d="M51.9939 29.8102V19.8227H53.104V25.3372H53.2428V29.8102H51.9939ZM57.3326 29.8102V26.0583C57.3343 25.7138 57.3025 25.37 57.238 25.0316C57.1808 24.7199 57.0693 24.4205 56.9091 24.1471C56.7577 23.8899 56.5426 23.6763 56.2843 23.5269C55.9819 23.3644 55.6415 23.2856 55.2985 23.2986C55.0104 23.2948 54.7249 23.3475 54.4571 23.4538C54.2064 23.5578 53.9843 23.7206 53.8098 23.9286C53.6164 24.1643 53.4727 24.4371 53.3887 24.7302C53.2828 25.0988 53.2328 25.4811 53.2395 25.8645L52.4278 25.6181C52.4104 24.9731 52.5454 24.333 52.8209 23.7495C53.0629 23.2501 53.446 22.8326 53.9229 22.5487C54.4334 22.2603 55.0124 22.1153 55.5985 22.129C56.024 22.1176 56.4469 22.196 56.8401 22.359C57.1643 22.4988 57.4552 22.7056 57.6936 22.966C57.9185 23.2153 58.0991 23.5014 58.2269 23.8119C58.3542 24.1172 58.446 24.436 58.5005 24.7622C58.553 25.0636 58.5801 25.3688 58.5823 25.6747V29.8151L57.3326 29.8102Z" fill="#004187"/>
<path d="M63.6342 30.0186C62.9595 30.0331 62.2939 29.8627 61.7091 29.5258C61.1617 29.201 60.7182 28.7273 60.4298 28.1599C60.1122 27.5229 59.9547 26.818 59.9718 26.1065C59.953 25.3727 60.1074 24.6447 60.4226 23.9817C60.6996 23.408 61.1364 22.9264 61.6803 22.5945C62.2552 22.2577 62.9127 22.0871 63.5788 22.1017C64.258 22.0808 64.9278 22.262 65.5038 22.6224C66.044 22.9831 66.4607 23.5008 66.6973 24.1057C66.9777 24.8382 67.0943 25.6232 67.039 26.4055H65.7902V25.962C65.8322 25.2313 65.635 24.5069 65.2279 23.8988C65.0328 23.666 64.7855 23.4827 64.506 23.3639C64.2265 23.2452 63.9227 23.1943 63.6197 23.2154C63.2924 23.1944 62.9642 23.2498 62.662 23.3772C62.3598 23.5047 62.0918 23.7006 61.8784 23.9497C61.4435 24.5632 61.2325 25.3077 61.2816 26.0581C61.2357 26.791 61.447 27.517 61.8784 28.1114C62.0857 28.3564 62.347 28.5498 62.642 28.6763C62.9369 28.8029 63.2576 28.8592 63.578 28.8408C64.0313 28.8519 64.4779 28.7343 64.867 28.5015C65.2416 28.2645 65.54 27.9246 65.7268 27.5225L66.9131 27.9332C66.6441 28.5685 66.1854 29.105 65.5993 29.4691C65.0097 29.8347 64.3279 30.0253 63.6342 30.0186ZM60.8677 26.4121V25.4199H66.4014V26.4121H60.8677Z" fill="#004187"/>
<path d="M68.5787 29.81V22.3234H69.6832V24.1304L69.5011 23.8939C69.5874 23.6668 69.7033 23.4523 69.846 23.2557C69.9769 23.071 70.1377 22.9095 70.3216 22.7777C70.5172 22.619 70.7396 22.4969 70.9785 22.4171C71.2199 22.3343 71.4714 22.2843 71.7261 22.2684C71.9657 22.251 72.2068 22.2682 72.4415 22.3193V23.4783C72.1623 23.4077 71.8725 23.3888 71.5865 23.4224C71.2748 23.4559 70.978 23.5731 70.7275 23.7616C70.4959 23.9242 70.3053 24.1381 70.17 24.3867C70.0372 24.6352 69.9446 24.9033 69.8957 25.1809C69.8454 25.4681 69.8203 25.7591 69.8203 26.0507V29.8092L68.5787 29.81Z" fill="#004187"/>
<path d="M75.6472 30.0184C75.1603 30.0347 74.6763 29.9285 74.2411 29.7096C73.8853 29.5238 73.5901 29.2411 73.3885 28.894C73.2104 28.5682 73.112 28.2048 73.1013 27.8337C73.0906 27.4625 73.1678 27.0941 73.3267 26.7585C73.4759 26.4699 73.6932 26.2223 73.9604 26.0374C74.2592 25.8334 74.5897 25.6797 74.9381 25.5824C75.3322 25.4778 75.7314 25.3933 76.134 25.3294C76.5759 25.2571 77.0225 25.1914 77.4775 25.1323C77.9326 25.0731 78.353 25.0148 78.7456 24.959L78.3029 25.2152C78.3582 24.6899 78.2156 24.1629 77.9034 23.7368C77.7106 23.5585 77.4822 23.4234 77.2329 23.3407C76.9836 23.258 76.7193 23.2295 76.4581 23.2572C76.0402 23.2481 75.6278 23.355 75.267 23.566C74.9093 23.7973 74.6527 24.1557 74.5491 24.5688L73.378 24.2148C73.5352 23.5926 73.9061 23.0452 74.4256 22.6683C75.0301 22.2688 75.7463 22.072 76.4701 22.1065C77.0747 22.09 77.6746 22.2146 78.2227 22.4703C78.6944 22.6979 79.0681 23.0886 79.2742 23.5701C79.3815 23.8083 79.4485 24.0624 79.4739 24.3224C79.5018 24.6047 79.5162 24.8881 79.5156 25.1717V29.8049H78.4216V28.0094L78.6783 28.1737C78.431 28.7397 78.0193 29.218 77.496 29.5462C76.9358 29.873 76.2954 30.0366 75.6472 30.0184ZM75.834 28.9852C76.232 28.9948 76.6271 28.9127 76.9883 28.7454C77.297 28.6 77.567 28.3836 77.7759 28.1137C77.9701 27.862 78.1033 27.5689 78.1657 27.2571C78.2367 27.0057 78.2745 26.7462 78.2788 26.485C78.2854 26.1997 78.2892 25.9807 78.2892 25.828L78.7184 26.0152C78.3175 26.07 77.9232 26.1228 77.5345 26.1737C77.1457 26.2247 76.7772 26.2794 76.43 26.338C76.1143 26.3892 75.802 26.4577 75.494 26.5433C75.2939 26.6042 75.1009 26.6868 74.9189 26.7897C74.7468 26.8849 74.5998 27.0191 74.4889 27.1815C74.3748 27.3578 74.3173 27.5647 74.3245 27.7745C74.3244 27.9788 74.3772 28.1795 74.4785 28.3569C74.593 28.5512 74.7623 28.708 74.9646 28.8078C75.2358 28.9367 75.534 28.9976 75.834 28.9852Z" fill="#004187"/>
<path d="M81.3138 33.1389V22.3194H82.4175V27.8339H82.5554V33.1398L81.3138 33.1389ZM84.7636 30.0178C84.1312 30.0388 83.5088 29.855 82.9893 29.4938C82.4985 29.1324 82.1197 28.6395 81.8969 28.0721C81.4029 26.7707 81.4029 25.3333 81.8969 24.0319C82.1197 23.4671 82.5 22.9782 82.9926 22.6233C83.5167 22.2692 84.1394 22.0898 84.7716 22.1108C85.4084 22.094 86.0344 22.2747 86.5643 22.6282C87.0731 22.9817 87.4735 23.4701 87.7201 24.0385C88.2548 25.331 88.2548 26.7828 87.7201 28.0754C87.4725 28.6454 87.0725 29.1361 86.5643 29.4938C86.0323 29.8529 85.4011 30.0365 84.7596 30.0187L84.7636 30.0178ZM84.612 28.8868C85.0514 28.9041 85.4839 28.7724 85.8392 28.5131C86.1729 28.2495 86.4252 27.8971 86.5675 27.4963C86.891 26.5679 86.891 25.5574 86.5675 24.629C86.4265 24.2269 86.1717 23.8747 85.8336 23.6155C85.4667 23.3551 85.0238 23.2237 84.5743 23.2418C84.1438 23.2251 83.7199 23.3506 83.3679 23.5991C83.0368 23.8514 82.788 24.1965 82.6533 24.5904C82.4882 25.0615 82.4085 25.5583 82.4183 26.0573C82.4098 26.5538 82.4882 27.048 82.6493 27.5177C82.7836 27.9168 83.0338 28.2668 83.3679 28.523C83.7302 28.7778 84.1662 28.9059 84.6088 28.8877L84.612 28.8868Z" fill="#004187"/>
<path d="M92.8907 30.0186C92.2159 30.0335 91.5502 29.863 90.9656 29.5258C90.4184 29.201 89.9744 28.7273 89.6863 28.1599C89.3679 27.5232 89.2104 26.8182 89.2267 26.1065C89.209 25.3727 89.3635 24.6449 89.6783 23.9817C89.9555 23.4076 90.3929 22.9258 90.9376 22.5945C91.5117 22.2573 92.1681 22.0866 92.8337 22.1017C93.5126 22.0807 94.1823 22.2619 94.7579 22.6224C95.299 22.9824 95.7161 23.5003 95.9522 24.1057C96.232 24.8384 96.3491 25.6231 96.2955 26.4055H95.0475V25.962C95.0877 25.2316 94.8902 24.5079 94.4852 23.8988C94.2896 23.6661 94.0424 23.4829 93.7625 23.3641C93.4826 23.2454 93.1779 23.1944 92.8746 23.2154C92.5474 23.1942 92.2198 23.2496 91.9177 23.377C91.6156 23.5045 91.348 23.7005 91.1349 23.9497C90.6992 24.5629 90.4876 25.3074 90.5365 26.0581C90.4908 26.7913 90.7026 27.5174 91.1349 28.1114C91.3422 28.3563 91.6029 28.5496 91.8977 28.6762C92.1924 28.8027 92.5126 28.8591 92.8329 28.8408C93.2867 28.852 93.7346 28.7343 94.1243 28.5016C94.4987 28.2643 94.7971 27.9245 94.9841 27.5225L96.1696 27.9332C95.9006 28.5685 95.4411 29.1051 94.855 29.4691C94.2654 29.8348 93.5844 30.0253 92.8907 30.0186ZM90.1218 26.4121V25.4199H95.6579V26.4121H90.1218Z" fill="#004187"/>
<path d="M100.678 30.0037C100.253 30.0151 99.8314 29.9373 99.4391 29.7754C99.1125 29.636 98.8198 29.4278 98.5808 29.1652C98.3574 28.9149 98.1771 28.6289 98.0483 28.3192C97.9199 28.014 97.8281 27.6948 97.7747 27.3681C97.7229 27.0682 97.6958 26.7647 97.6929 26.4605V22.3193H98.9402V26.072C98.9406 26.4138 98.9734 26.7548 99.038 27.0904C99.0962 27.4029 99.2076 27.7032 99.3669 27.9783C99.5167 28.2377 99.7317 28.4532 99.9909 28.6034C100.293 28.7661 100.634 28.845 100.977 28.8317C101.266 28.8356 101.553 28.7811 101.82 28.6715C102.073 28.5678 102.297 28.405 102.473 28.1968C102.667 27.9618 102.809 27.689 102.89 27.396C102.993 27.0284 103.042 26.6481 103.036 26.2666L103.847 26.513C103.863 27.1569 103.729 27.7957 103.454 28.3783C103.213 28.8789 102.83 29.2974 102.352 29.5816C101.843 29.8712 101.264 30.0171 100.678 30.0037ZM103.175 29.8099V27.8058H103.036V22.3193H104.276V29.8099H103.175Z" fill="#004187"/>
<path d="M105.388 23.3388V22.3187H110.402V23.3388H105.388ZM110.402 29.8094C109.97 29.8962 109.529 29.9323 109.089 29.917C108.69 29.9086 108.297 29.8192 107.934 29.6541C107.601 29.4988 107.33 29.2362 107.164 28.9084C107.02 28.6301 106.938 28.3237 106.925 28.0106C106.912 27.7078 106.906 27.3642 106.907 26.9798V20.2366H108.139V26.9223C108.139 27.2279 108.139 27.4891 108.148 27.7067C108.149 27.903 108.198 28.096 108.292 28.2685C108.372 28.4133 108.486 28.5365 108.624 28.6272C108.762 28.718 108.92 28.7736 109.085 28.7893C109.522 28.8382 109.965 28.8241 110.399 28.7474L110.402 29.8094Z" fill="#004187"/>
<path d="M112.066 20.9951V19.7187H113.298V20.9951H112.066ZM112.066 29.8097V22.3191H113.298V29.8097H112.066Z" fill="#004187"/>
<path d="M118.542 30.0186C117.862 30.0403 117.191 29.8633 116.61 29.5094C116.08 29.1673 115.658 28.6793 115.398 28.1041C115.112 27.4625 114.967 26.7672 114.971 26.0647C114.964 25.353 115.113 24.6485 115.409 24.0015C115.674 23.4292 116.099 22.9461 116.633 22.611C117.241 22.2698 117.93 22.0975 118.627 22.1119C119.324 22.1264 120.004 22.327 120.597 22.6931C121.161 23.0682 121.57 23.6349 121.748 24.2881L120.527 24.6569C120.387 24.245 120.119 23.8894 119.76 23.6434C119.496 23.4504 119.19 23.3215 118.867 23.2668C118.545 23.2121 118.214 23.2332 117.901 23.3283C117.588 23.4234 117.301 23.5899 117.063 23.8148C116.826 24.0397 116.644 24.3167 116.532 24.6241C116.363 25.085 116.28 25.5725 116.285 26.0631C116.26 26.7793 116.463 27.4851 116.864 28.0786C117.06 28.3351 117.316 28.5393 117.61 28.6731C117.903 28.8069 118.225 28.8662 118.547 28.8458C118.979 28.8622 119.405 28.7449 119.767 28.5098C120.107 28.2669 120.364 27.9267 120.506 27.5341L121.755 27.8626C121.533 28.5131 121.107 29.0749 120.541 29.4651C119.946 29.8481 119.249 30.0412 118.542 30.0186Z" fill="#004187"/>
<path d="M125.993 30.012C125.219 30.0448 124.454 29.8405 123.799 29.4264C123.521 29.2393 123.283 28.997 123.103 28.7144C122.922 28.4318 122.801 28.115 122.748 27.7837L124.011 27.5825C124.108 27.9842 124.359 28.3317 124.71 28.5501C125.119 28.8001 125.592 28.9244 126.07 28.9073C126.496 28.9317 126.919 28.8198 127.277 28.5878C127.416 28.4914 127.529 28.3616 127.606 28.2102C127.682 28.0588 127.719 27.8908 127.714 27.7213C127.722 27.5382 127.671 27.3574 127.569 27.2055C127.405 27.0298 127.197 26.9013 126.967 26.8334C126.666 26.7179 126.209 26.5791 125.598 26.417C125.061 26.2867 124.539 26.1032 124.038 25.8692C123.713 25.7264 123.432 25.4996 123.225 25.2121C123.057 24.9391 122.973 24.623 122.983 24.3029C122.975 23.889 123.101 23.4837 123.343 23.1481C123.601 22.803 123.951 22.5377 124.352 22.3826C124.832 22.193 125.345 22.1008 125.86 22.1116C126.381 22.1029 126.899 22.1949 127.385 22.3826C127.806 22.5427 128.179 22.8059 128.471 23.1481C128.746 23.4759 128.917 23.8777 128.964 24.3029L127.7 24.5312C127.677 24.3413 127.613 24.1586 127.513 23.9948C127.414 23.8311 127.282 23.6901 127.125 23.5809C126.752 23.3352 126.314 23.2073 125.867 23.2138C125.456 23.1779 125.044 23.2672 124.685 23.4701C124.547 23.5451 124.431 23.6564 124.351 23.7921C124.271 23.9278 124.229 24.0828 124.23 24.2405C124.226 24.4108 124.287 24.5763 124.399 24.7045C124.578 24.8744 124.795 25.0006 125.031 25.0733C125.471 25.2284 125.919 25.3603 126.373 25.4684C126.913 25.5916 127.437 25.7739 127.938 26.0121C128.267 26.1652 128.548 26.4048 128.752 26.7053C128.924 27.0047 129.009 27.3459 128.998 27.6909C129.011 28.0179 128.946 28.3432 128.807 28.6396C128.668 28.9359 128.461 29.1945 128.201 29.3936C127.555 29.8421 126.778 30.06 125.993 30.012Z" fill="#004187"/>
<defs>
<linearGradient id="paint0_linear_83_1586" x1="0.26344" y1="30.8773" x2="30.104" y2="5.29189" gradientUnits="userSpaceOnUse">
<stop stop-color="#00159F"/>
<stop offset="0.001" stop-color="#00159F"/>
<stop offset="0.207" stop-color="#113AA2"/>
<stop offset="0.412" stop-color="#1F58A5"/>
<stop offset="0.614" stop-color="#296DA7"/>
<stop offset="0.812" stop-color="#2F79A8"/>
<stop offset="1" stop-color="#327EA9"/>
</linearGradient>
</defs>
</svg>
