<?xml version="1.0" standalone="no"?>
<!DOCTYPE svg PUBLIC "-//W3C//DTD SVG 20010904//EN"
 "http://www.w3.org/TR/2001/REC-SVG-20010904/DTD/svg10.dtd">
<svg version="1.0" xmlns="http://www.w3.org/2000/svg"
 width="656.000000pt" height="656.000000pt" viewBox="0 0 656.000000 656.000000"
 preserveAspectRatio="xMidYMid meet">
<metadata>
Created by potrace 1.14, written by Peter Selinger 2001-2017
</metadata>
<g transform="translate(0.000000,656.000000) scale(0.100000,-0.100000)"
fill="#000000" stroke="none">
<path d="M5771 6510 c-71 -20 -101 -34 -151 -70 -121 -87 -198 -231 -202 -379
-4 -128 47 -257 139 -349 56 -56 145 -111 208 -127 17 -5 37 -10 45 -12 8 -2
51 -4 96 -4 170 0 322 89 410 239 15 25 27 52 27 59 0 7 3 13 7 13 23 0 34
214 16 291 -16 70 -84 183 -140 233 -41 36 -123 83 -176 101 -75 26 -198 28
-279 5z"/>
<path d="M1037 6043 c-2 -2 -30 -8 -63 -14 -148 -26 -297 -89 -426 -178 -76
-52 -207 -175 -237 -221 -9 -14 -30 -43 -47 -66 -41 -55 -127 -236 -139 -294
-1 -3 -10 -41 -20 -85 -33 -136 -25 -340 19 -505 34 -125 93 -227 297 -515
145 -206 215 -316 270 -425 37 -75 87 -198 94 -232 2 -9 8 -25 13 -35 6 -10
10 -21 10 -26 0 -4 9 -38 20 -75 23 -76 52 -202 58 -247 2 -16 9 -55 14 -85 6
-31 13 -83 17 -115 9 -84 10 -449 0 -515 -27 -196 -101 -455 -171 -597 -19
-40 -61 -111 -93 -159 -32 -48 -62 -94 -68 -103 -5 -8 -14 -20 -20 -27 -5 -6
-30 -35 -55 -64 -25 -29 -93 -103 -152 -164 -58 -61 -120 -129 -137 -151 -17
-22 -34 -44 -39 -50 -16 -21 -46 -93 -69 -164 -64 -207 18 -461 203 -630 25
-22 48 -41 51 -41 4 0 14 -6 22 -14 32 -28 141 -77 213 -95 76 -19 278 -26
278 -9 0 5 4 7 9 4 11 -7 139 32 166 50 11 8 27 14 37 14 10 0 18 4 18 8 0 5
12 15 27 23 15 8 34 21 43 29 8 8 27 24 41 35 44 35 118 134 154 206 20 38 32
69 29 69 -4 0 -2 6 4 13 26 31 43 198 28 277 -22 122 -44 184 -127 355 -24 50
-44 92 -44 95 -1 3 -11 28 -24 55 -58 125 -75 164 -98 225 -39 104 -63 184
-89 300 -4 17 -8 42 -23 145 -20 137 -23 168 -26 243 -8 183 -5 350 9 462 35
272 94 418 231 568 89 98 271 208 375 228 14 2 32 7 40 10 48 17 234 24 311
11 54 -9 159 -37 177 -48 10 -5 28 -14 42 -19 109 -46 256 -177 324 -288 37
-62 81 -159 90 -203 22 -96 27 -131 27 -184 0 -33 -4 -80 -10 -105 -5 -25 -12
-63 -16 -85 -5 -37 -26 -100 -113 -345 -28 -78 -74 -240 -86 -300 -3 -14 -7
-34 -9 -45 -8 -35 -21 -109 -22 -130 -1 -11 -6 -47 -10 -80 -8 -52 -10 -312
-4 -370 2 -26 26 -163 34 -195 3 -14 8 -35 11 -47 8 -42 65 -188 99 -256 92
-185 238 -351 407 -465 140 -94 382 -194 528 -217 19 -3 43 -8 53 -11 38 -12
128 -17 287 -17 182 0 259 7 360 33 19 5 47 11 61 14 14 2 48 12 75 21 27 9
54 18 59 19 36 9 200 90 267 132 183 115 359 303 460 494 40 76 98 218 98 241
0 9 3 19 7 23 4 3 8 12 9 19 2 11 18 86 28 134 30 142 23 324 -20 539 -8 44
-17 84 -18 89 -2 6 -6 24 -10 40 -27 107 -105 327 -120 337 -6 4 -8 8 -4 8 3
0 -10 35 -31 77 -21 43 -45 94 -53 113 -9 19 -25 56 -37 82 -11 26 -21 52 -21
58 0 6 -4 18 -9 28 -11 21 -43 109 -42 117 1 3 -5 22 -13 42 -20 56 -33 102
-46 163 -7 30 -16 66 -19 80 -6 20 -6 135 0 200 3 43 43 171 71 228 61 126
214 297 363 407 22 17 42 33 43 38 2 4 8 7 13 7 6 0 48 24 95 53 47 28 93 57
103 62 26 16 154 107 173 125 9 8 41 35 71 60 265 220 269 605 11 876 -87 91
-224 170 -329 190 -5 1 -12 3 -15 4 -6 3 -77 10 -140 13 -41 3 -81 -2 -165
-17 -50 -9 -136 -42 -205 -77 -69 -36 -220 -176 -220 -204 0 -8 -4 -15 -9 -15
-8 0 -52 -92 -65 -136 -26 -85 -20 -327 8 -372 3 -5 7 -19 10 -33 3 -13 20
-69 39 -124 45 -130 89 -334 90 -415 2 -258 -125 -537 -329 -720 -352 -318
-902 -340 -1286 -52 -75 56 -220 198 -273 266 -16 22 -39 51 -51 65 -72 91
-198 324 -260 481 -20 51 -37 98 -38 104 -1 6 -4 16 -8 21 -5 8 -25 74 -33
105 0 3 -4 14 -8 25 -3 11 -8 31 -11 45 -2 14 -9 45 -15 70 -13 59 -19 93 -26
160 -3 30 -8 66 -10 80 -2 14 -6 54 -9 90 -3 36 -8 94 -11 130 -3 36 -8 94
-10 130 -9 140 -20 225 -36 282 -7 24 -13 46 -15 51 -1 4 -3 9 -4 12 -1 3 -3
8 -4 13 -5 21 -30 87 -42 110 -8 15 -14 33 -14 40 0 6 -4 12 -10 12 -5 0 -10
5 -10 11 0 6 -13 31 -30 56 -16 24 -30 46 -30 49 0 12 -78 102 -146 170 -130
129 -353 253 -504 280 -26 5 -74 15 -100 21 -19 5 -339 11 -343 6z"/>
</g>
</svg>
